<svg width="9" height="15" viewBox="0 0 9 15" fill="none" xmlns="http://www.w3.org/2000/svg">
<path d="M3.95367 9.44014L6.3861 10.8301L8.87644 9.44014V12.7413L6.3861 14.2471L3.95367 12.8347L1 11.1197V8.02122V4.92277V1.85328L3.95367 3.59073L6.55984 1.96911V4.92277L3.95367 6.51543V9.44014Z" fill="#EFFF3D"/>
<path d="M1 1.85328L3.95367 3.59073M1 1.85328L2.79537 0.694977M1 1.85328V4.92277M6.3861 14.2471V10.8301M6.3861 14.2471L8.87644 12.7413V9.44014M6.3861 14.2471L3.95367 12.8347M6.3861 10.8301L3.95367 9.44014M6.3861 10.8301L8.87644 9.44014M3.95367 9.44014L5.45946 8.5135M3.95367 9.44014V6.51543M3.95367 9.44014V12.8347M3.95367 9.44014L1 8.02122M3.95367 3.59073L6.55984 1.96911M3.95367 3.59073V6.51543M6.55984 1.96911L4.99614 0.926637M6.55984 1.96911V4.92277M6.55984 7.87644V4.92277M8.87644 9.44014L7.60231 8.57142M3.95367 6.51543L6.55984 4.92277M3.95367 6.51543L1 4.92277M1 4.92277V8.02122M3.95367 12.8347L1 11.1197V8.02122" stroke="black" stroke-width="0.11583"/>
<path d="M6.68464 8.55914L7.6603 8.40737V9.109C7.6603 9.32323 7.52741 9.51499 7.32681 9.59021L7.26532 9.61327C6.77552 9.79695 6.23424 9.7877 5.75101 9.58741C5.57456 9.51428 5.45953 9.34208 5.45953 9.15108V8.40551L6.66843 8.55937L6.67655 8.5604L6.68464 8.55914Z" fill="#EEFF3E" stroke="black" stroke-width="0.11583"/>
<g filter="url(#filter0_i_20_3)">
<ellipse cx="6.55991" cy="8.28184" rx="1.1583" ry="0.405405" fill="#EFFF3D"/>
</g>
<path d="M7.6603 8.28184C7.6603 8.31367 7.642 8.35221 7.59026 8.39502C7.53889 8.43753 7.46108 8.4784 7.35982 8.51384C7.15784 8.58453 6.87503 8.62933 6.55991 8.62933C6.24479 8.62933 5.96198 8.58453 5.76 8.51384C5.65874 8.4784 5.58093 8.43753 5.52956 8.39502C5.47782 8.35221 5.45953 8.31367 5.45953 8.28184C5.45953 8.25001 5.47782 8.21147 5.52956 8.16866C5.58093 8.12615 5.65874 8.08528 5.76 8.04984C5.96198 7.97914 6.24479 7.93435 6.55991 7.93435C6.87503 7.93435 7.15784 7.97914 7.35982 8.04984C7.46108 8.08528 7.53889 8.12615 7.59026 8.16866C7.642 8.21147 7.6603 8.25001 7.6603 8.28184Z" stroke="black" stroke-width="0.11583"/>
<path d="M4.02058 0.914366L4.99623 0.762597V1.46422C4.99623 1.67845 4.86334 1.87021 4.66275 1.94544L4.60125 1.9685C4.11146 2.15217 3.57018 2.14293 3.08694 1.94264C2.9105 1.86951 2.79546 1.6973 2.79546 1.5063V0.76073L4.00437 0.91459L4.01249 0.915624L4.02058 0.914366Z" fill="#EEFF3E" stroke="black" stroke-width="0.11583"/>
<g filter="url(#filter1_i_20_3)">
<ellipse cx="3.89585" cy="0.637064" rx="1.1583" ry="0.405405" fill="#EFFF3D"/>
</g>
<path d="M4.99623 0.637064C4.99623 0.668892 4.97794 0.707434 4.9262 0.750246C4.87483 0.792754 4.79702 0.833625 4.69576 0.869065C4.49378 0.939759 4.21097 0.984554 3.89585 0.984554C3.58073 0.984554 3.29792 0.939759 3.09594 0.869065C2.99468 0.833625 2.91687 0.792754 2.8655 0.750246C2.81376 0.707434 2.79546 0.668892 2.79546 0.637064C2.79546 0.605235 2.81376 0.566694 2.8655 0.523881C2.91687 0.481374 2.99468 0.440503 3.09594 0.405063C3.29792 0.334369 3.58073 0.289574 3.89585 0.289574C4.21097 0.289574 4.49378 0.334369 4.69576 0.405063C4.79702 0.440503 4.87483 0.481374 4.9262 0.523881C4.97794 0.566694 4.99623 0.605235 4.99623 0.637064Z" stroke="black" stroke-width="0.11583"/>
<defs>
<filter id="filter0_i_20_3" x="5.40161" y="7.87643" width="2.31665" height="1.04247" filterUnits="userSpaceOnUse" color-interpolation-filters="sRGB">
<feFlood flood-opacity="0" result="BackgroundImageFix"/>
<feBlend mode="normal" in="SourceGraphic" in2="BackgroundImageFix" result="shape"/>
<feColorMatrix in="SourceAlpha" type="matrix" values="0 0 0 0 0 0 0 0 0 0 0 0 0 0 0 0 0 0 127 0" result="hardAlpha"/>
<feOffset dy="0.23166"/>
<feGaussianBlur stdDeviation="0.11583"/>
<feComposite in2="hardAlpha" operator="arithmetic" k2="-1" k3="1"/>
<feColorMatrix type="matrix" values="0 0 0 0 0.921569 0 0 0 0 0.984314 0 0 0 0 0.235294 0 0 0 0.6 0"/>
<feBlend mode="normal" in2="shape" result="effect1_innerShadow_20_3"/>
</filter>
<filter id="filter1_i_20_3" x="2.73755" y="0.231659" width="2.31665" height="1.04247" filterUnits="userSpaceOnUse" color-interpolation-filters="sRGB">
<feFlood flood-opacity="0" result="BackgroundImageFix"/>
<feBlend mode="normal" in="SourceGraphic" in2="BackgroundImageFix" result="shape"/>
<feColorMatrix in="SourceAlpha" type="matrix" values="0 0 0 0 0 0 0 0 0 0 0 0 0 0 0 0 0 0 127 0" result="hardAlpha"/>
<feOffset dy="0.23166"/>
<feGaussianBlur stdDeviation="0.11583"/>
<feComposite in2="hardAlpha" operator="arithmetic" k2="-1" k3="1"/>
<feColorMatrix type="matrix" values="0 0 0 0 0.921569 0 0 0 0 0.984314 0 0 0 0 0.235294 0 0 0 0.6 0"/>
<feBlend mode="normal" in2="shape" result="effect1_innerShadow_20_3"/>
</filter>
</defs>
</svg>
